HIERARCHY
ROOT hip
{
	OFFSET 0.000000 0.000000 0.000000 
	CHANNELS 6 Xposition Yposition Zposition Xrotation Zrotation Yrotation
	JOINT abdomen
	{
		OFFSET 0.000000 3.402643 0.000000 
		CHANNELS 3 Xrotation Zrotation Yrotation
		JOINT chest
		{
			OFFSET 0.000000 8.438565 -0.680529 
			CHANNELS 3 Xrotation Zrotation Yrotation
			JOINT neck
			{
				OFFSET 0.000000 10.207942 -0.272212 
				CHANNELS 3 Xrotation Zrotation Yrotation
				JOINT head
				{
					OFFSET 0.000000 3.130431 0.000000 
					CHANNELS 3 Xrotation Zrotation Yrotation
					End Site
					{
						OFFSET 0.000000 3.130435 0.000000 
					}
				}
			}
			JOINT lCollar
			{
				OFFSET 3.470700 6.669187 -0.816635 
				CHANNELS 3 Yrotation Zrotation Xrotation
				JOINT lShldr
				{
					OFFSET 3.198488 0.000000 0.000000 
					CHANNELS 3 Zrotation Yrotation Xrotation
					JOINT lForeArm
					{
						OFFSET 10.139888 0.000000 0.000000 
						CHANNELS 3 Yrotation Zrotation Xrotation
						JOINT lHand
						{
							OFFSET 8.370511 0.000000 0.000000 
							CHANNELS 3 Zrotation Yrotation Xrotation
							End Site
							{
								OFFSET 4.083176 0.000000 0.000000 
							}
						}
					}
				}
			}
			JOINT rCollar
			{
				OFFSET -3.470700 6.669187 -0.816635 
				CHANNELS 3 Yrotation Zrotation Xrotation
				JOINT rShldr
				{
					OFFSET -3.198488 0.000000 0.000000 
					CHANNELS 3 Zrotation Yrotation Xrotation
					JOINT rForeArm
					{
						OFFSET -10.139888 0.000000 0.000000 
						CHANNELS 3 Yrotation Zrotation Xrotation
						JOINT rHand
						{
							OFFSET -8.370511 0.000000 0.000000 
							CHANNELS 3 Zrotation Yrotation Xrotation
							End Site
							{
								OFFSET -4.083176 0.000000 0.000000 
							}
						}
					}
				}
			}
		}
	}
	JOINT lThigh
	{
		OFFSET 5.308129 -1.633274 1.361059 
		CHANNELS 3 Xrotation Zrotation Yrotation
		JOINT lShin
		{
			OFFSET -2.041588 -20.007561 0.000000 
			CHANNELS 3 Xrotation Zrotation Yrotation
			JOINT lFoot
			{
				OFFSET 0.000000 -19.190928 -1.224953 
				CHANNELS 3 Xrotation Yrotation Zrotation
				End Site
				{
					OFFSET 0.000000 -2.449906 4.627600 
				}
			}
		}
	}
	JOINT rThigh
	{
		OFFSET -5.308129 -1.633274 1.361059 
		CHANNELS 3 Xrotation Zrotation Yrotation
		JOINT rShin
		{
			OFFSET 2.041588 -20.007561 0.000000 
			CHANNELS 3 Xrotation Zrotation Yrotation
			JOINT rFoot
			{
				OFFSET 0.000000 -19.190928 -1.224953 
				CHANNELS 3 Xrotation Yrotation Zrotation
				End Site
				{
					OFFSET 0.000000 -2.449906 4.627600 
				}
			}
		}
	}
}
MOTION
Frames: 19
Frame Time: 0.016667
-1.014507 42.074066 12.933469 10.887104 6.552367 -12.072040 0.000000 0.000000 0.000000 -13.159822 -3.546545 5.752901 42.465481 -7.099010 -0.748567 -20.078691 1.984596 7.553405 -10.062617 1.178294 25.000000 -74.336639 4.172455 -15.488749 -51.047878 -14.531987 83.749191 -16.148975 -18.450516 -56.463509 10.384398 -5.491570 24.995852 59.796204 18.102137 71.119476 33.134132 -45.551754 58.217575 25.924393 18.504250 -78.668182 -5.292824 6.337451 19.071669 30.503307 0.373899 -1.069984 -14.481933 5.345622 -21.799786 -17.898577 -13.641197 -2.384355 45.046921 1.884555 3.524702 -13.982713 0.158701 21.314936 
-1.002439 41.987370 13.550937 9.895638 6.987137 -12.613924 0.000000 0.000000 0.000000 -13.862102 -3.653612 5.724266 43.644188 -7.753143 -0.809270 -18.862429 1.845825 8.275971 -9.125513 0.489898 25.000000 -73.250534 4.437578 -15.959068 -50.128151 -13.778830 82.040001 -18.926931 -22.525650 -54.000175 9.768946 -5.511664 24.999134 59.425331 18.106962 70.958740 32.493694 -44.924732 58.769932 24.539497 21.586754 -78.298347 -2.342919 5.393496 18.852125 29.208529 -0.065269 -1.108549 -14.823234 7.031997 -24.198299 -15.482331 -14.730242 -2.876089 44.409798 2.314189 3.553745 -15.600953 0.842715 22.247843 
-1.068341 41.817612 14.474816 8.067531 6.642790 -13.017607 0.000000 0.000000 0.000000 -14.385720 -3.274145 5.810243 43.411564 -7.782420 -0.818950 -18.325285 1.474879 9.212192 -7.340895 0.000632 24.985012 -70.483643 2.360195 -16.776066 -47.616543 -10.509364 78.384476 -20.792562 -24.460276 -52.316696 7.702309 -5.402837 24.989866 57.179810 18.918501 69.851151 29.094488 -43.398087 54.225830 23.824141 22.508385 -78.296036 1.444718 5.175218 18.803944 28.952168 -0.462280 -1.183068 -15.530614 7.940213 -25.358736 -11.483926 -15.096893 -3.133525 43.661655 2.480309 3.518187 -16.948360 1.139862 23.795862 
-1.134238 41.647854 15.398637 6.241172 6.280710 -13.401275 0.000000 0.000000 0.000000 -14.907212 -2.894888 5.876420 43.187519 -7.821477 -0.818954 -17.800371 1.105515 10.138768 -5.562351 -0.493686 24.830542 -67.696487 0.321459 -17.696596 -44.926121 -7.400339 74.618843 -22.751486 -26.348654 -50.530960 5.639949 -5.296929 24.992908 54.913788 19.705153 68.701752 25.978134 -41.681725 49.934631 23.103054 23.431297 -78.306450 5.252851 4.940675 18.749235 28.690716 -0.872464 -1.248806 -16.243057 8.870067 -26.526112 -7.477325 -15.431848 -3.415221 42.912930 2.646227 3.470984 -18.320305 1.421399 25.335365 
-1.263541 41.331177 16.347679 4.408512 5.696061 -13.200565 0.000000 0.000000 0.000000 -14.877914 -2.894888 5.876421 38.690361 -6.718309 -0.658943 -20.300074 1.171387 10.519947 -3.797914 0.532856 24.832111 -63.175110 -4.476433 -18.665150 -41.000343 -3.143019 62.306694 -21.352539 -21.754730 -53.064842 2.952067 -5.889060 24.896654 50.648952 22.396894 66.409775 20.920532 -38.949577 40.566101 24.062735 20.390507 -78.819519 7.087898 5.721740 18.982126 31.941031 -0.853588 -1.430838 -17.155367 8.141026 -27.570396 -4.422509 -15.343803 -3.467470 43.969517 2.333866 3.522249 -19.097151 1.031958 25.503895 
-1.392838 41.014511 17.296688 2.570397 5.120134 -12.991506 0.000000 0.000000 0.000000 -14.859385 -2.904602 5.876420 34.197273 -5.614950 -0.579140 -22.785429 1.256220 10.901139 -2.044413 1.562328 24.789087 -58.535648 -9.184988 -20.034927 -36.273670 0.163697 49.754890 -20.197506 -17.109348 -55.410774 0.258858 -6.469277 24.773285 46.193314 24.916351 63.865696 16.670729 -35.639725 31.891853 25.033201 17.367741 -79.384628 8.930678 6.483016 19.248262 35.200714 -0.834836 -1.614588 -18.103342 7.404567 -28.623829 -1.357209 -15.234891 -3.533762 45.043518 2.021363 3.549159 -19.871880 0.655216 25.674417 
-1.482004 40.675354 18.310997 0.284283 4.890602 -13.045637 0.000000 0.000000 0.000000 -14.465676 -3.079622 5.848169 29.659021 -4.863119 -0.471202 -25.688599 1.900491 10.621313 -0.694846 2.539651 24.702814 -50.875427 -13.398830 -21.835812 -33.201653 3.592640 39.391129 -17.905619 -14.603998 -56.445499 -1.207709 -7.943088 24.491718 40.604065 28.092810 60.919815 12.405561 -32.002445 23.067898 26.012604 13.102280 -79.831001 11.108370 6.854759 19.285892 38.804615 -0.724345 -1.747845 -19.136375 6.937737 -30.732576 1.551713 -16.156973 -3.902606 47.153320 2.311916 3.815135 -21.034988 0.870664 26.302118 
-1.571162 40.336201 19.325304 -2.011160 4.661169 -13.099989 0.000000 0.000000 0.000000 -14.072230 -3.264430 5.809687 25.126999 -4.091692 -0.411898 -28.602856 2.526922 10.313273 0.646420 3.516784 24.592667 -42.932880 -17.336945 -24.240257 -29.540388 6.411057 28.807819 -15.680161 -12.071379 -57.368561 -2.691468 -9.408476 24.177084 34.675865 30.979675 57.556179 8.982116 -27.893715 14.903281 27.011520 8.839416 -80.346016 13.296356 7.216422 19.356071 42.405304 -0.592269 -1.936991 -20.164602 6.575102 -32.866970 4.489161 -17.051943 -4.304127 49.273170 2.604661 4.087735 -22.195808 1.065658 26.960388 
-1.569112 40.091175 20.397467 -3.759924 4.836178 -13.858900 0.000000 0.000000 0.000000 -14.525089 -2.982369 5.867162 23.039724 -4.345586 -0.421675 -30.433485 3.135273 10.005571 1.822373 3.896008 24.460888 -34.299267 -18.607187 -26.058231 -27.222511 9.653831 21.195360 -15.784697 -11.320792 -56.438461 -3.198253 -12.061078 23.864809 29.829123 33.583229 54.923080 5.547272 -25.486742 7.423194 27.051401 4.602062 -80.446289 15.285489 6.767276 19.060169 45.178127 -0.365564 -1.994543 -20.324091 6.567084 -34.795746 6.170183 -18.786583 -4.914911 52.003445 2.770189 4.382895 -22.570795 2.632958 29.197830 
-1.567067 39.846161 21.469631 -5.516712 4.980546 -14.625991 0.000000 0.000000 0.000000 -14.976378 -2.690651 5.924257 20.951752 -4.599485 -0.421702 -32.266075 3.725761 9.669099 3.004694 4.261189 24.317949 -25.568586 -19.601122 -28.077715 -24.465166 12.547410 13.369495 -15.882410 -10.562111 -55.523376 -3.715754 -14.706039 23.527719 24.686670 35.978313 51.935123 2.558979 -22.714346 0.257469 27.096884 0.365504 -80.557327 17.290020 6.318050 18.766819 47.938499 -0.134890 -2.078433 -20.474405 6.586729 -36.730358 7.880375 -20.488190 -5.591457 54.763805 2.916525 4.694270 -23.009785 4.128532 31.453236 
-1.617060 39.759205 22.559599 -6.889799 4.755859 -15.787774 0.000000 0.000000 0.000000 -15.409380 -1.912953 6.096861 19.861609 -4.863138 -0.441183 -33.597069 4.143847 9.331491 4.089784 4.195167 24.200298 -18.378832 -18.380260 -29.025190 -23.792393 16.309132 8.760498 -17.817055 -11.009838 -53.673508 -4.115957 -17.165318 23.185186 21.007740 37.292446 50.037342 -0.765679 -23.094181 -6.632574 26.039385 -1.153033 -80.243698 18.800802 6.445582 18.670809 50.894638 -0.002514 -2.166384 -18.909523 5.569828 -38.885452 8.803934 -21.456482 -5.954204 57.366371 1.959378 4.750262 -21.668697 6.133565 34.217106 
-1.667061 39.672256 23.649567 -8.246508 4.503220 -16.957888 0.000000 0.000000 0.000000 -15.837296 -1.135786 6.251091 18.770773 -5.126795 -0.451785 -34.926300 4.553193 8.974216 5.174129 4.126400 24.085411 -11.259060 -17.058374 -29.801870 -22.781143 19.990286 4.013712 -19.767998 -11.398452 -51.801018 -4.520353 -19.622538 22.813948 17.203846 38.505161 47.995434 -4.119583 -23.104874 -13.539657 24.964861 -2.669123 -79.903725 20.312904 6.562597 18.615183 53.828220 0.189934 -2.286886 -17.357466 4.556413 -41.002304 9.760880 -22.413715 -6.336295 59.972721 0.982651 4.773145 -20.396372 8.180295 36.945286 
-1.770234 39.703651 24.697338 -9.364400 4.154861 -17.488199 0.000000 0.000000 0.000000 -15.848538 -0.873584 6.309197 17.532349 -4.619028 -0.402236 -35.943787 4.529826 8.513613 5.826602 3.818186 24.051361 -5.505114 -14.668858 -29.965775 -22.682756 23.993053 0.540473 -21.015617 -12.286779 -50.058037 -5.508550 -20.461632 22.349203 13.710324 38.151375 46.774372 -7.691445 -25.728582 -19.034533 24.167961 -1.453762 -79.526131 21.347534 7.148779 18.727247 56.430607 0.399278 -2.346228 -14.493434 2.547126 -42.247486 10.903715 -23.148008 -6.624956 61.720547 0.260013 4.785566 -18.371677 9.779878 37.126915 
-1.873409 39.735046 25.745100 -10.472923 3.798823 -18.019182 0.000000 0.000000 0.000000 -15.859144 -0.611451 6.357684 16.296141 -4.101477 -0.372239 -36.962986 4.496537 8.042502 6.491650 3.504671 24.015863 0.187812 -12.280912 -29.885506 -22.318542 27.966169 -3.048943 -22.291506 -13.134731 -48.279831 -6.503966 -21.289740 21.871489 10.243190 37.736340 45.596302 -11.614948 -28.021141 -24.814331 23.384422 -0.244576 -79.151764 22.393579 7.734910 18.873247 59.003178 0.630656 -2.382998 -11.675493 0.486039 -43.422291 12.075827 -23.881720 -6.944853 63.472458 -0.462895 4.779869 -16.348831 11.439618 37.281910 
-1.997084 39.720703 26.692488 -10.360590 3.562682 -18.209688 0.000000 0.000000 0.000000 -16.426754 -0.533796 6.367456 14.918989 -3.251910 -0.293605 -37.486874 4.314152 7.913671 7.249671 3.630815 23.925951 4.123678 -9.817331 -29.643328 -22.035482 31.668192 -7.753762 -23.063332 -13.553007 -46.981346 -7.437633 -21.242931 21.524828 7.622486 36.054131 45.309723 -16.079348 -31.333681 -30.330053 23.060024 0.905649 -78.807884 22.310438 8.555131 19.218796 60.685146 0.872919 -2.424774 -8.776876 -1.354719 -43.367500 12.064888 -24.309195 -7.122595 64.863976 -0.960749 4.800977 -14.678606 12.897581 35.872932 
-2.120760 39.706329 27.639864 -10.256463 3.327015 -18.401114 0.000000 0.000000 0.000000 -16.993254 -0.446439 6.377139 13.534813 -2.402325 -0.224821 -38.010643 4.131728 7.774440 8.007487 3.756479 23.842339 8.041005 -7.371508 -29.243660 -21.359562 35.340393 -12.689607 -23.843676 -13.949205 -45.670891 -8.375383 -21.178589 21.172029 5.063141 34.354881 45.123077 -21.062492 -34.243706 -36.332249 22.748409 2.049670 -78.457909 22.224466 9.365833 19.541014 62.379017 1.089056 -2.416047 -5.872996 -3.204605 -43.193436 12.066791 -24.750523 -7.313867 66.273026 -1.458953 4.816492 -12.959158 14.288433 34.396782 
-2.249950 39.549866 28.526052 -9.642552 2.988468 -18.678480 0.000000 0.000000 0.000000 -17.276625 -0.184381 6.425811 12.202134 -1.679680 -0.166231 -38.182022 3.995800 7.822437 9.239723 4.066580 23.663082 10.550683 -4.967922 -28.919939 -20.417072 38.751736 -18.869606 -24.749897 -14.297043 -44.490162 -8.978152 -21.073215 20.963150 3.905132 32.030830 45.622959 -27.401855 -36.810558 -43.595760 23.096170 2.789802 -78.110985 22.328777 9.951177 19.786282 62.995502 1.390815 -2.378351 -3.835387 -4.375850 -43.182671 11.561001 -24.666834 -7.248903 67.556038 -2.152523 4.802363 -11.263924 15.604069 35.228058 
-2.379134 39.393368 29.412235 -9.022658 2.641560 -18.965818 0.000000 0.000000 0.000000 -17.560650 0.067923 6.474616 10.861333 -0.957029 -0.117334 -38.352947 3.869665 7.860054 10.486844 4.365611 23.473228 13.078238 -2.585138 -28.493853 -18.926386 42.055435 -25.432308 -25.656258 -14.625751 -43.310154 -9.587830 -20.954020 20.744387 2.754432 29.708857 46.174236 -34.297272 -38.680019 -51.400307 23.456324 3.531469 -77.754128 22.439318 10.546841 20.045462 63.611076 1.687417 -2.349005 -1.779032 -5.532511 -43.134106 11.072479 -24.567575 -7.225727 68.846359 -2.855817 4.759993 -9.567560 16.942080 36.008827 
-2.482696 39.048424 30.261557 -8.387785 2.503467 -18.934383 0.000000 0.000000 0.000000 -17.261351 -0.048519 6.455076 9.736657 -0.322265 -0.058648 -38.285450 3.685164 7.936707 11.352619 5.052021 23.238192 13.600354 0.373782 -28.370247 -17.343538 45.331966 -31.766808 -26.318424 -14.987906 -42.405178 -10.468473 -20.634565 20.476339 2.474334 27.399342 46.895992 -41.408623 -39.020252 -59.656258 23.919518 4.602105 -77.399780 22.995785 10.469143 19.952829 63.719852 2.240433 -2.235414 -1.632553 -5.732789 -43.707664 11.003150 -24.596273 -7.210384 69.943130 -3.226262 4.771249 -8.813077 17.766045 37.685719 
